<svg xmlns="http://www.w3.org/2000/svg" version="1.1" xmlns:xlink="http://www.w3.org/1999/xlink" xmlns:svgjs="http://svgjs.com/svgjs" width="1920" height="1080" preserveAspectRatio="none" viewBox="0 0 1920 1080"><g mask="url(&quot;#SvgjsMask3207&quot;)" fill="none"><rect width="1920" height="1080" x="0" y="0" fill="#1e3266"></rect><path d="M2016 1080L0 1080 L0 596.87Q36.43 537.3, 96 573.72Q169.82 487.54, 256 561.36Q334.38 543.74, 352 622.12Q475.13 585.25, 512 708.39Q519.72 556.11, 672 563.83Q758.44 490.27, 832 576.71Q941.51 590.23, 928 699.74Q1015.2 626.94, 1088 714.15Q1118.65 648.8, 1184 679.45Q1271.23 606.68, 1344 693.92Q1366.69 556.61, 1504 579.3Q1539.62 518.91, 1600 554.53Q1674.98 469.5, 1760 544.48Q1840.72 529.2, 1856 609.93Q1930.04 523.97, 2016 598.01z" fill="#182f5d"></path><path d="M1984 1080L0 1080 L0 682.21Q89.73 611.94, 160 701.68Q250.76 696.44, 256 787.21Q318.02 753.23, 352 815.25Q385.69 688.94, 512 722.64Q606.13 656.77, 672 750.91Q738.1 721.01, 768 787.11Q842.27 701.38, 928 775.66Q952.8 704.46, 1024 729.27Q1132.77 678.04, 1184 786.81Q1219.11 661.91, 1344 697.02Q1402.51 659.52, 1440 718.03Q1541.97 724, 1536 825.98Q1511.52 705.5, 1632 681.02Q1729.1 682.12, 1728 779.21Q1826.19 717.4, 1888 815.6Q1900.08 731.67, 1984 743.75z" fill="#25467d"></path><path d="M1952 1080L0 1080 L0 913.7Q34.41 852.12, 96 886.53Q112.19 806.72, 192 822.92Q277.93 748.85, 352 834.77Q424.51 811.28, 448 883.8Q526.95 866.75, 544 945.7Q646.25 887.95, 704 990.19Q710.31 836.5, 864 842.81Q933.53 752.34, 1024 821.87Q1066.67 768.54, 1120 811.21Q1227.15 758.37, 1280 865.52Q1376.37 865.88, 1376 962.25Q1434.97 925.22, 1472 984.19Q1515.61 867.8, 1632 911.4Q1719.88 839.28, 1792 927.17Q1825.13 800.31, 1952 833.44z" fill="#356cb1"></path><path d="M2080 1080L0 1080 L0 1056.95Q64.71 1025.66, 96 1090.37Q118.2 1016.57, 192 1038.78Q196.26 947.04, 288 951.3Q362.33 929.63, 384 1003.95Q424.63 948.58, 480 989.21Q509.62 922.83, 576 952.45Q650.33 930.78, 672 1005.1Q792.72 965.82, 832 1086.53Q878.25 972.78, 992 1019.02Q1061.06 928.08, 1152 997.14Q1237.27 986.41, 1248 1071.68Q1298.43 962.12, 1408 1012.55Q1475.98 984.53, 1504 1052.5Q1545.41 997.91, 1600 1039.32Q1694.89 974.21, 1760 1069.1Q1804.46 953.56, 1920 998.02Q1987.56 905.58, 2080 973.13z" fill="white"></path></g><defs><mask id="SvgjsMask3207"><rect width="1920" height="1080" fill="#ffffff"></rect></mask></defs></svg>